<svg xmlns="http://www.w3.org/2000/svg" viewBox="0 0 512 512" role="img" aria-labelledby="title desc">
  <title id="title">ANSHCODEX Labs icon</title>
  <desc id="desc">Abstract blue and cyan AC monogram for ANSHCODEX Labs.</desc>
  <defs>
    <linearGradient id="blue" x1="0" y1="0" x2="1" y2="1">
      <stop offset="0" stop-color="#143a88"/>
      <stop offset="0.52" stop-color="#145dff"/>
      <stop offset="1" stop-color="#159dff"/>
    </linearGradient>
    <linearGradient id="cyan" x1="0" y1="0" x2="1" y2="1">
      <stop offset="0" stop-color="#0a43ff"/>
      <stop offset="0.62" stop-color="#079fff"/>
      <stop offset="1" stop-color="#15d7ff"/>
    </linearGradient>
  </defs>
  <path d="M92 402 228 105l93 192-70 0-25-58-48 108-43 55z" fill="url(#blue)"/>
  <path d="M174 399c43-95 105-176 185-202 45-15 86-12 119 5-30 10-55 22-76 40-39 33-73 80-82 118-7 31 14 55 50 59 29 3 64-3 103-13l27 39c-65 23-125 29-169 16-55-16-81-50-71-95 10-47 51-99 97-132 28-20 57-35 89-46-52-5-104 13-151 50-48 38-84 91-120 160h-86z" fill="url(#cyan)"/>
</svg>
